<svg xmlns="http://www.w3.org/2000/svg" version="1.1" xmlns:xlink="http://www.w3.org/1999/xlink" xmlns:svgjs="http://svgjs.com/svgjs" width="1920" height="1080" preserveAspectRatio="none" viewBox="0 0 1920 1080"><g mask="url(&quot;#SvgjsMask1053&quot;)" fill="none"><rect width="1920" height="1080" x="0" y="0" fill="rgba(0, 0, 0, 1)"></rect><path d="M1193.94 281.9 a216.62 216.62 0 1 0 433.24 0 a216.62 216.62 0 1 0 -433.24 0z" fill="rgba(17, 93, 175, 1)" class="triangle-float1"></path><path d="M-210.36 528.94 a235.94 235.94 0 1 0 471.88 0 a235.94 235.94 0 1 0 -471.88 0z" fill="rgba(17, 93, 175, 1)" class="triangle-float3"></path><path d="M903.76 763.09 a313.06 313.06 0 1 0 626.12 0 a313.06 313.06 0 1 0 -626.12 0z" fill="rgba(17, 93, 175, 1)" class="triangle-float2"></path><path d="M1461.32 887.52 a290.88 290.88 0 1 0 581.76 0 a290.88 290.88 0 1 0 -581.76 0z" fill="rgba(17, 93, 175, 1)" class="triangle-float3"></path></g><defs><mask id="SvgjsMask1053"><rect width="1920" height="1080" fill="#ffffff"></rect></mask><style>
            @keyframes float1 {
                0%{transform: translate(0, 0)}
                50%{transform: translate(-10px, 0)}
                100%{transform: translate(0, 0)}
            }

            .triangle-float1 {
                animation: float1 5s infinite;
            }

            @keyframes float2 {
                0%{transform: translate(0, 0)}
                50%{transform: translate(-5px, -5px)}
                100%{transform: translate(0, 0)}
            }

            .triangle-float2 {
                animation: float2 4s infinite;
            }

            @keyframes float3 {
                0%{transform: translate(0, 0)}
                50%{transform: translate(0, -10px)}
                100%{transform: translate(0, 0)}
            }

            .triangle-float3 {
                animation: float3 6s infinite;
            }
        </style></defs></svg>